# xmcd
#
# Track frame offsets:
#	150
#	8566
#	20384
#	35878
#	49304
#	61682
#	71695
#	88438
#	99678
#	112805
#	124398
#	138675
#	152673
#	163986
#
# Disc length: 2354 seconds
# Revision: 0
# Processed by: cddbd v1.5.2PL0 Copyright (c) Steve Scherf et al.
# Submitted via: dBpowerAMP V12.0
#
DISCID=c609300e
DTITLE=Maxim Turbulenc - Všecky pecky
DYEAR=2010
DGENRE=Country
TTITLE0=Až jaro na Aljašku zavítá k nám
TTITLE1=Hardy
TTITLE2=Koukám jak celá země vstává
TTITLE3=Stará archa (Kocábka)
TTITLE4=Za chvíli už budu v dáli
TTITLE5=Bramborový placky
TTITLE6=Dakota
TTITLE7=Hola ria hou
TTITLE8=Joudlejdy jou
TTITLE9=Řeka hučí
TTITLE10=Tiperrarry
TTITLE11=Maryland
TTITLE12=Tam blízko Little Big Hornu
TTITLE13=Jambalaja
EXTD=
EXTT0=
EXTT1=
EXTT2=
EXTT3=
EXTT4=
EXTT5=
EXTT6=
EXTT7=
EXTT8=
EXTT9=
EXTT10=
EXTT11=
EXTT12=
EXTT13=
PLAYORDER=
